HIERARCHY
ROOT Hips
{
	OFFSET 0.000000 8.830580 0.000000
	CHANNELS 6 Xposition Yposition Zposition Zrotation Yrotation Xrotation 
	JOINT Spine
	{
		OFFSET 0.000000 0.010000 0.000000
		CHANNELS 3 Zrotation Yrotation Xrotation
		JOINT Spine1
		{
			OFFSET 0.000000 2.459130 0.000000
			CHANNELS 3 Zrotation Yrotation Xrotation
			JOINT Neck
			{
				OFFSET 0.000000 2.484630 0.000000
				CHANNELS 3 Zrotation Yrotation Xrotation
				JOINT Head_virtual
				{
					OFFSET 0.000000 0.000000 0.000000
					CHANNELS 3 Zrotation Yrotation Xrotation
					JOINT Head
					{
						OFFSET 0.000000 0.927525 0.000000
						CHANNELS 3 Zrotation Yrotation Xrotation
						End Site
						{
							OFFSET 0.000000 0.000000 0.000000
						}
					}
				}
				JOINT LeftUpArm_virtual
				{
					OFFSET 0.000000 0.000000 0.000000
					CHANNELS 3 Zrotation Yrotation Xrotation
					JOINT LeftUpArm
					{
						OFFSET 1.248820 0.000000 0.000000
						CHANNELS 3 Zrotation Yrotation Xrotation
						JOINT LeftForeArm
						{
							OFFSET 2.597580 0.000000 0.000000
							CHANNELS 3 Zrotation Yrotation Xrotation
							JOINT LeftHand
							{
								OFFSET 2.455420 0.000000 0.000000
								CHANNELS 3 Zrotation Yrotation Xrotation
								End Site
								{
									OFFSET 0.000000 0.000000 0.000000
								}
							}
						}
					}
				}
				JOINT RightUpArm_virtual
				{
					OFFSET -0.000000 -0.000000 -0.000000
					CHANNELS 3 Zrotation Yrotation Xrotation
					JOINT RightUpArm
					{
						OFFSET -1.248820 -0.000000 -0.000000
						CHANNELS 3 Zrotation Yrotation Xrotation
						JOINT RightForeArm
						{
							OFFSET -2.597580 -0.000000 -0.000000
							CHANNELS 3 Zrotation Yrotation Xrotation
							JOINT RightHand
							{
								OFFSET -2.455420 -0.000000 -0.000000
								CHANNELS 3 Zrotation Yrotation Xrotation
								End Site
								{
									OFFSET 0.000000 0.000000 0.000000
								}
							}
						}
					}
				}
			}
		}
	}
	JOINT LeftUpLeg
	{
		OFFSET 1.271939 0.000000 0.000000
		CHANNELS 3 Zrotation Yrotation Xrotation
		JOINT LeftLowLeg
		{
			OFFSET 0.000000 -4.342910 0.000000
			CHANNELS 3 Zrotation Yrotation Xrotation
			JOINT LeftFoot
			{
				OFFSET 0.000000 -4.487670 0.000000
				CHANNELS 3 Zrotation Yrotation Xrotation
				JOINT LeftToeBase
				{
					OFFSET 0.000000 0.000000 1.515070
					CHANNELS 3 Zrotation Yrotation Xrotation
					End Site
					{
						OFFSET 0.000000 0.000000 0.000000
					}
				}
			}
		}
	}
	JOINT RightUpLeg
	{
		OFFSET -1.271939 0.000000 0.000000
		CHANNELS 3 Zrotation Yrotation Xrotation
		JOINT RightLowLeg
		{
			OFFSET 0.000000 -4.342910 0.000000
			CHANNELS 3 Zrotation Yrotation Xrotation
			JOINT RightFoot
			{
				OFFSET 0.000000 -4.487670 0.000000
				CHANNELS 3 Zrotation Yrotation Xrotation
				JOINT RightToeBase
				{
					OFFSET 0.000000 0.000000 1.515070
					CHANNELS 3 Zrotation Yrotation Xrotation
					End Site
					{
						OFFSET 0.000000 0.000000 0.000000
					}
				}
			}
		}
	}
}
MOTION
Frames: 5
Frame Time: 0.041667
-18.129849 9.209695 43.372864 -175.571690 0.189095 -175.955066 2.463235 -1.827747 -6.863278 0.602244 -2.144923 5.420909 0.000000 0.000000 0.000000 -1.483275 5.016823 -1.294573 3.622313 7.435237 -48.453364 -2.109770 14.094900 -3.460850 -10.907600 -0.904295 -32.560699 0.000000 -20.853800 0.000000 27.228001 9.930790 27.852900 8.749740 -10.750500 -0.313809 9.468680 -0.852304 -36.420898 0.000000 19.903601 0.000000 -18.062599 -2.951060 25.803200 4.323822 2.341401 -5.015308 0.000000 0.000000 8.750900 -11.646740 -1.422942 6.298470 0.000000 0.000000 -38.235399 3.286099 5.906994 -3.377695 0.000000 0.000000 7.817020 6.834399 -6.920635 9.839959 0.000000 0.000000 -28.547400 
-18.129207 9.209548 43.372907 -175.572688 0.195815 -175.943848 2.525658 -1.777042 -6.815373 0.491400 -2.107174 5.316655 0.000000 0.000000 0.000000 -1.365186 4.906252 -1.175999 3.613390 7.442383 -48.429752 -2.025180 14.031400 -3.418850 -10.934900 -0.878101 -32.684898 0.000000 -20.923901 0.000000 27.169901 9.954230 27.810600 8.779320 -10.863700 -0.271347 9.517730 -0.875073 -36.559101 0.000000 19.954599 0.000000 -18.037201 -2.903540 25.858101 4.325525 2.343535 -5.025964 0.000000 0.000000 8.754490 -11.655216 -1.419641 6.288117 0.000000 0.000000 -38.215900 3.286525 5.939129 -3.399056 0.000000 0.000000 7.835870 6.848856 -6.937226 9.826102 0.000000 0.000000 -28.548700 
-18.128659 9.209415 43.373307 -175.570088 0.208433 -175.932895 2.475039 -1.828364 -6.862981 0.622884 -2.147651 5.429325 0.000000 0.000000 0.000000 -1.454936 4.923007 -1.179363 3.594548 7.357212 -48.417485 -2.100040 14.136300 -3.510790 -10.957200 -0.870667 -32.752998 0.000000 -20.969900 0.000000 27.150400 9.982910 27.823000 8.645350 -10.790800 -0.304947 9.653680 -0.931450 -36.775200 0.000000 20.024300 0.000000 -17.918900 -2.705390 25.890900 4.329359 2.343679 -5.044010 0.000000 0.000000 8.768940 -11.661056 -1.405770 6.278787 0.000000 0.000000 -38.232599 3.290191 5.933427 -3.426921 0.000000 0.000000 7.862190 6.837465 -6.921530 9.826738 0.000000 0.000000 -28.575300 
-18.128466 9.209289 43.373292 -175.574606 0.225729 -175.939323 2.549342 -1.772746 -6.800950 0.484317 -2.107746 5.341495 0.000000 0.000000 0.000000 -1.321065 4.805818 -1.110739 3.601660 7.373622 -48.380039 -2.022660 14.083300 -3.445390 -10.927600 -0.850177 -32.649601 0.000000 -20.986500 0.000000 27.166901 9.983620 27.867901 8.714680 -10.900100 -0.256909 9.650180 -0.947779 -36.846100 0.000000 19.977600 0.000000 -17.799700 -2.521850 25.927000 4.326557 2.311535 -5.038040 0.000000 0.000000 8.778430 -11.656701 -1.364774 6.268636 0.000000 0.000000 -38.218800 3.284871 5.932977 -3.438360 0.000000 0.000000 7.893650 6.856132 -6.895400 9.808891 0.000000 0.000000 -28.568600 
-18.127961 9.209430 43.373353 -175.576790 0.253765 -175.938892 2.492044 -1.826303 -6.846345 0.615095 -2.149328 5.469830 0.000000 0.000000 0.000000 -1.449530 4.870956 -1.165782 3.641780 7.283074 -48.344940 -2.089850 14.157700 -3.531590 -10.912300 -0.779431 -32.462898 0.000000 -20.969700 0.000000 27.270599 9.979580 28.042601 8.649270 -10.823700 -0.304678 9.652770 -0.959210 -36.811199 0.000000 19.957800 0.000000 -17.728500 -2.458390 25.894400 4.328558 2.303531 -5.030966 0.000000 0.000000 8.777500 -11.673952 -1.345444 6.263284 0.000000 0.000000 -38.213800 3.283740 5.927112 -3.444164 0.000000 0.000000 7.895220 6.843015 -6.869132 9.818831 0.000000 0.000000 -28.573800 
